<svg width="44" height="44" viewBox="0 0 44 44" fill="none" xmlns="http://www.w3.org/2000/svg">
<g clip-path="url(#clip0)">
<path d="M43.0833 42.1667H0.916695C0.410695 42.1667 0 42.5774 0 43.0834C0 43.5894 0.410695 44.0001 0.916695 44.0001H43.0834C43.5894 44.0001 44.0001 43.5894 44.0001 43.0834C44 42.5774 43.5893 42.1667 43.0833 42.1667Z" fill="black"/>
<path d="M8.25019 31.1667H2.75019C2.24419 31.1667 1.8335 31.5774 1.8335 32.0834V43.0834C1.8335 43.5894 2.24419 44.0001 2.75019 44.0001H8.25019C8.75619 44.0001 9.16689 43.5894 9.16689 43.0834V32.0834C9.16689 31.5774 8.75619 31.1667 8.25019 31.1667ZM7.3335 42.1667H3.66689V33.0001H7.33358V42.1667H7.3335Z" fill="black"/>
<path d="M19.2502 22H13.7502C13.2442 22 12.8335 22.4107 12.8335 22.9167V43.0834C12.8335 43.5894 13.2442 44.0001 13.7502 44.0001H19.2502C19.7562 44.0001 20.1669 43.5894 20.1669 43.0834V22.9167C20.1669 22.4107 19.7562 22 19.2502 22ZM18.3335 42.1667H14.6668V23.8333H18.3335V42.1667Z" fill="black"/>
<path d="M30.2502 25.6667H24.7502C24.2442 25.6667 23.8335 26.0774 23.8335 26.5834V43.0834C23.8335 43.5894 24.2442 44.0001 24.7502 44.0001H30.2502C30.7562 44.0001 31.1669 43.5894 31.1669 43.0834V26.5834C31.1669 26.0774 30.7562 25.6667 30.2502 25.6667ZM29.3335 42.1667H25.6668V27.5001H29.3335V42.1667Z" fill="black"/>
<path d="M41.2502 14.6667H35.7502C35.2442 14.6667 34.8335 15.0774 34.8335 15.5834V43.0834C34.8335 43.5894 35.2442 44.0001 35.7502 44.0001H41.2502C41.7562 44.0001 42.1669 43.5894 42.1669 43.0834V15.5834C42.1669 15.0774 41.7562 14.6667 41.2502 14.6667ZM40.3335 42.1667H36.6668V16.5001H40.3335V42.1667Z" fill="black"/>
<path d="M5.50019 16.5C3.478 16.5 1.8335 18.1445 1.8335 20.1667C1.8335 22.1889 3.478 23.8334 5.50019 23.8334C7.52239 23.8334 9.16689 22.1889 9.16689 20.1667C9.16689 18.1445 7.52239 16.5 5.50019 16.5ZM5.50019 22C4.48819 22 3.66689 21.1768 3.66689 20.1667C3.66689 19.1565 4.48819 18.3334 5.50019 18.3334C6.51219 18.3334 7.3335 19.1566 7.3335 20.1667C7.3335 21.1768 6.51219 22 5.50019 22Z" fill="black"/>
<path d="M16.5002 7.33325C14.478 7.33325 12.8335 8.97775 12.8335 10.9999C12.8335 13.0221 14.478 14.6666 16.5002 14.6666C18.5224 14.6666 20.1669 13.0221 20.1669 10.9999C20.1669 8.97775 18.5224 7.33325 16.5002 7.33325ZM16.5002 12.8332C15.4882 12.8332 14.6669 12.0101 14.6669 10.9999C14.6669 9.98975 15.4882 9.16664 16.5002 9.16664C17.5122 9.16664 18.3335 9.98984 18.3335 10.9999C18.3335 12.0101 17.5122 12.8332 16.5002 12.8332Z" fill="black"/>
<path d="M27.5002 11C25.478 11 23.8335 12.6445 23.8335 14.6667C23.8335 16.6889 25.478 18.3334 27.5002 18.3334C29.5224 18.3334 31.1669 16.6889 31.1669 14.6667C31.1669 12.6445 29.5224 11 27.5002 11ZM27.5002 16.5C26.4882 16.5 25.6669 15.6768 25.6669 14.6667C25.6669 13.6565 26.4882 12.8334 27.5002 12.8334C28.5122 12.8334 29.3335 13.6566 29.3335 14.6667C29.3335 15.6768 28.5122 16.5 27.5002 16.5Z" fill="black"/>
<path d="M38.5002 0C36.478 0 34.8335 1.6445 34.8335 3.6667C34.8335 5.68889 36.478 7.33339 38.5002 7.33339C40.5224 7.33339 42.1669 5.68889 42.1669 3.6667C42.1669 1.6445 40.5224 0 38.5002 0ZM38.5002 5.5C37.4882 5.5 36.6669 4.6768 36.6669 3.6667C36.6669 2.6565 37.4882 1.83339 38.5002 1.83339C39.5122 1.83339 40.3335 2.65659 40.3335 3.6667C40.3335 4.6768 39.5122 5.5 38.5002 5.5Z" fill="black"/>
<path d="M37.206 4.961C36.8485 4.6035 36.2673 4.6035 35.9098 4.961L28.7964 12.0743C28.4389 12.4318 28.4389 13.013 28.7964 13.3705C28.9761 13.5483 29.2108 13.6382 29.4454 13.6382C29.6783 13.6382 29.9129 13.5502 30.0926 13.3705L37.206 6.25719C37.5635 5.89969 37.5635 5.3185 37.206 4.961Z" fill="black"/>
<path d="M25.283 12.5511L19.3943 10.8718C18.9011 10.7288 18.4006 11.0148 18.2631 11.5025C18.1238 11.9902 18.4061 12.4962 18.8919 12.6355L24.7806 14.3148C24.8649 14.3386 24.9493 14.3496 25.0318 14.3496C25.4315 14.3496 25.7981 14.0874 25.9136 13.6841C26.053 13.1983 25.7707 12.6904 25.283 12.5511Z" fill="black"/>
<path d="M15.0703 12.1421C14.7549 11.7461 14.1793 11.6819 13.7833 11.9954L6.87155 17.5064C6.47555 17.8236 6.40955 18.3993 6.72675 18.7953C6.90825 19.0226 7.17594 19.1399 7.44355 19.1399C7.64336 19.1399 7.84505 19.0739 8.01375 18.9419L14.9254 13.4309C15.3214 13.1138 15.3874 12.5381 15.0703 12.1421Z" fill="black"/>
</g>
<defs>
<clipPath id="clip0">
<rect width="44" height="44" fill="white"/>
</clipPath>
</defs>
</svg>
