<svg width="20" height="20" viewBox="0 0 20 20" fill="none" xmlns="http://www.w3.org/2000/svg">
<path d="M10 0C4.48566 0 0 4.48566 0 10C0 15.5143 4.48566 20 10 20C15.5143 20 20 15.5136 20 10C20 4.48645 15.5143 0 10 0ZM10 18.4508C5.34082 18.4508 1.54918 14.66 1.54918 10C1.54918 5.34004 5.34082 1.54918 10 1.54918C14.66 1.54918 18.4508 5.34004 18.4508 10C18.4508 14.66 14.6592 18.4508 10 18.4508Z" fill="#00DF16"/>
<path d="M14.5878 6.52211C14.2725 6.23551 13.7822 6.25797 13.4941 6.57477L8.76902 11.7777L6.48628 9.45707C6.18496 9.15188 5.69543 9.14723 5.39101 9.44778C5.08582 9.74754 5.08117 10.2379 5.38171 10.543L8.23918 13.4478C8.38558 13.5965 8.58386 13.6794 8.79144 13.6794C8.79609 13.6794 8.80152 13.6794 8.80617 13.6802C9.01996 13.6755 9.22136 13.5841 9.36464 13.4261L14.6404 7.61664C14.9278 7.29903 14.9046 6.80949 14.5878 6.52211Z" fill="#00DF16"/>
</svg>
