<svg width="18" height="18" viewBox="0 0 18 18" fill="none" xmlns="http://www.w3.org/2000/svg">
<path d="M17.4581 14.2597C17.6994 14.2597 17.8968 14.4571 17.9012 14.6985V17.4582C17.9012 17.7039 17.7038 17.9014 17.4581 17.9014H14.6983C14.457 17.9014 14.2596 17.7039 14.2596 17.4582V16.4973H3.64167V17.4582C3.64167 17.6995 3.44423 17.897 3.20292 17.9014H0.443143C0.201828 17.9014 0.00438756 17.7039 0 17.4582V14.6985C0 14.4571 0.19744 14.2597 0.443143 14.2597H1.40402V3.64181H0.443143C0.201828 3.64181 0.00438756 3.44437 0 3.20305V0.443277C0 0.201962 0.19744 0.00452232 0.443143 0.000133514H3.20292C3.44423 0.000133514 3.64167 0.197575 3.64167 0.443277V1.40415H14.2596V0.443277C14.2596 0.201962 14.457 0.00452232 14.6983 0.000133514H17.4581C17.6994 0.000133514 17.8968 0.197575 17.9012 0.443277V3.20305C17.9012 3.44437 17.7038 3.64181 17.4581 3.64181H16.4972V14.2597H17.4581ZM0.877511 15.1372V17.0239H2.76416V15.1372H0.877511ZM2.76416 0.877645H0.877511V2.76429H2.76416V0.877645ZM14.2596 3.20305V2.28166H3.64167V3.20305C3.64167 3.44437 3.44423 3.64181 3.20292 3.64181H2.28153V14.2597H3.20292C3.44423 14.2597 3.64167 14.4571 3.64167 14.6985V15.6198H14.2596V14.6985C14.2596 14.4571 14.457 14.2597 14.6983 14.2597H15.6197V3.64181H14.6983C14.457 3.64181 14.2596 3.44437 14.2596 3.20305ZM17.0237 2.76429V0.877645H15.1371V2.76429H17.0237ZM15.1371 15.1372V17.0239H17.0237V15.1372H15.1371Z" fill="#838383"/>
</svg>
