<svg width="24" height="16" viewBox="0 0 24 16" fill="none" xmlns="http://www.w3.org/2000/svg">
<path d="M0.376045 12H0.75222V9.09091C0.752743 8.70529 0.911442 8.33562 1.19352 8.06295C1.47559 7.79028 1.85801 7.63687 2.25692 7.63636V1.45455C2.25745 1.06893 2.41614 0.699255 2.69822 0.426584C2.98029 0.153914 3.36271 0.000505125 3.76163 0H19.561C19.9599 0.000505125 20.3423 0.153914 20.6244 0.426584C20.9065 0.699255 21.0652 1.06893 21.0657 1.45455V7.63636C21.4646 7.63687 21.847 7.79028 22.1291 8.06295C22.4112 8.33562 22.5699 8.70529 22.5704 9.09091V12H22.9466C23.0463 12 23.142 12.0383 23.2126 12.1065C23.2831 12.1747 23.3228 12.2672 23.3228 12.3636V13.8182C23.3228 13.9146 23.2831 14.0071 23.2126 14.0753C23.142 14.1435 23.0463 14.1818 22.9466 14.1818H22.5704V15.6364C22.5704 15.7328 22.5308 15.8253 22.4602 15.8935C22.3897 15.9617 22.294 16 22.1942 16H21.0657C20.9788 16 20.8945 15.9709 20.8273 15.9176C20.76 15.8643 20.714 15.7902 20.697 15.7077L20.3811 14.1818H2.94156L2.62557 15.7077C2.6086 15.7902 2.56258 15.8643 2.49535 15.9176C2.42813 15.9709 2.34387 16 2.25692 16H1.1284C1.02863 16 0.932947 15.9617 0.8624 15.8935C0.791853 15.8253 0.75222 15.7328 0.75222 15.6364V14.1818H0.376045C0.276278 14.1818 0.180595 14.1435 0.110048 14.0753C0.0395012 14.0071 -0.0001297 13.9146 -0.0001297 13.8182V12.3636C-0.0001297 12.2672 0.0395012 12.1747 0.110048 12.1065C0.180595 12.0383 0.276278 12 0.376045 12ZM20.3133 1.45455C20.3131 1.26174 20.2337 1.0769 20.0927 0.940565C19.9517 0.80423 19.7605 0.727525 19.561 0.727273H3.76163C3.56217 0.727525 3.37096 0.80423 3.22992 0.940565C3.08888 1.0769 3.00953 1.26174 3.00927 1.45455V7.63636H3.76163V6.18182C3.76215 5.7962 3.92085 5.42653 4.20292 5.15386C4.48499 4.88119 4.86742 4.72778 5.26633 4.72727H9.78043C10.1793 4.72778 10.5618 4.88119 10.8438 5.15386C11.1259 5.42653 11.2846 5.7962 11.2851 6.18182V7.63636H12.0375V6.18182C12.038 5.7962 12.1967 5.42653 12.4788 5.15386C12.7609 4.88119 13.1433 4.72778 13.5422 4.72727H18.0563C18.4552 4.72778 18.8376 4.88119 19.1197 5.15386C19.4018 5.42653 19.5605 5.7962 19.561 6.18182V7.63636H20.3133V1.45455ZM4.51398 6.18182V7.63636H10.5328V6.18182C10.5325 5.98901 10.4532 5.80417 10.3121 5.66784C10.1711 5.5315 9.97989 5.4548 9.78043 5.45455H5.26633C5.06687 5.4548 4.87566 5.5315 4.73462 5.66784C4.59359 5.80417 4.51424 5.98901 4.51398 6.18182ZM12.7898 6.18182V7.63636H18.8086V6.18182C18.8084 5.98901 18.729 5.80417 18.588 5.66784C18.447 5.5315 18.2558 5.4548 18.0563 5.45455H13.5422C13.3427 5.4548 13.1515 5.5315 13.0105 5.66784C12.8694 5.80417 12.7901 5.98901 12.7898 6.18182ZM21.8181 9.09091C21.8178 8.8981 21.7384 8.71326 21.5974 8.57693C21.4564 8.44059 21.2652 8.36389 21.0657 8.36364H2.25692C2.05747 8.36389 1.86625 8.44059 1.72522 8.57693C1.58418 8.71326 1.50483 8.8981 1.50457 9.09091V12H21.8181V9.09091ZM21.3742 15.2727H21.8181V14.1818H21.1485L21.3742 15.2727ZM1.50457 15.2727H1.94846L2.17416 14.1818H1.50457V15.2727ZM0.75222 13.4545H22.5704V12.7273H0.75222V13.4545Z" fill="#838383"/>
</svg>
