<svg width="44" height="44" viewBox="0 0 44 44" fill="none" xmlns="http://www.w3.org/2000/svg">
<path d="M8.19249 0H35.8071C36.519 0 37.0962 0.577156 37.0962 1.28906V42.7109C37.0962 43.2323 36.7821 43.7023 36.3004 43.9019C36.1409 43.9679 35.9734 44 35.8074 44C35.4719 44 35.1422 43.8691 34.8956 43.6224L21.9996 30.7265L9.10402 43.6224C8.73535 43.9911 8.18088 44.1013 7.6992 43.9019C7.21752 43.7023 6.90343 43.2323 6.90343 42.7109V1.28906C6.90343 0.577156 7.48058 0 8.19249 0ZM21.9996 27.6145C22.3415 27.6145 22.6693 27.7503 22.9111 27.9921L34.5181 39.5989V2.57812H9.48164V39.5987L21.0881 27.9921C21.3298 27.7503 21.6577 27.6145 21.9996 27.6145Z" fill="black"/>
</svg>
