<svg width="20" height="18" viewBox="0 0 20 18" fill="none" xmlns="http://www.w3.org/2000/svg">
<g clip-path="url(#clip0)">
<path d="M18.6175 2.65698H1.3062C0.585975 2.65698 0 3.18638 0 3.83707V9.87676C0 10.0406 0.146997 10.1735 0.328412 10.1735H19.5953C19.7767 10.1735 19.9237 10.0406 19.9237 9.87676V3.83707C19.9237 3.18638 19.3377 2.65698 18.6175 2.65698ZM1.42312 3.25039H18.5005V3.62661C18.5005 3.82271 18.3239 3.98226 18.1069 3.98226H1.81678C1.59972 3.98226 1.42312 3.82271 1.42312 3.62661V3.25039ZM18.5005 8.09654H1.42312V8.05659C1.42312 7.86049 1.59972 7.70094 1.81678 7.70094H18.1069C18.3239 7.70094 18.5005 7.86049 18.5005 8.05659V8.09654ZM1.42312 8.49215H18.5005V8.88775H1.42312V8.49215ZM1.42312 9.28336H18.5005V9.58006H1.42312V9.28336ZM19.2668 9.58006H18.9384V8.05659C18.9384 7.64235 18.5654 7.30533 18.1069 7.30533H1.81678C1.35822 7.30533 0.985236 7.64235 0.985236 8.05659V9.58006H0.656824V3.83707C0.656824 3.61909 0.789371 3.42885 0.985236 3.32773V3.62661C0.985236 4.04085 1.35827 4.37786 1.81678 4.37786H18.1069C18.5654 4.37786 18.9384 4.04085 18.9384 3.62661V3.32773C19.1343 3.42885 19.2668 3.61909 19.2668 3.83707V9.58006Z" fill="#838383"/>
<path d="M10.969 6.51392H8.95478C8.83384 6.51392 8.73584 6.60249 8.73584 6.71172C8.73584 6.82094 8.83384 6.90952 8.95478 6.90952H10.969C11.09 6.90952 11.188 6.82094 11.188 6.71172C11.188 6.60249 11.09 6.51392 10.969 6.51392Z" fill="#838383"/>
<path d="M17.5812 6.51416C17.5234 6.51416 17.467 6.53513 17.4262 6.57192C17.3855 6.60871 17.3623 6.65974 17.3623 6.71196C17.3623 6.76418 17.3855 6.81521 17.4262 6.85161C17.467 6.8888 17.5234 6.90976 17.5812 6.90976C17.6386 6.90976 17.6951 6.8888 17.7358 6.85161C17.7765 6.81482 17.8002 6.76379 17.8002 6.71196C17.8002 6.66014 17.7765 6.60911 17.7358 6.57192C17.6951 6.53513 17.6386 6.51416 17.5812 6.51416Z" fill="#838383"/>
<path d="M16.5739 6.51416C16.5161 6.51416 16.4596 6.53513 16.4189 6.57192C16.3782 6.60871 16.355 6.65974 16.355 6.71196C16.355 6.76418 16.3782 6.81482 16.4189 6.85161C16.4596 6.8884 16.5161 6.90976 16.5739 6.90976C16.6313 6.90976 16.6878 6.8884 16.7285 6.85161C16.7692 6.81482 16.7929 6.76379 16.7929 6.71196C16.7929 6.65974 16.7692 6.60871 16.7285 6.57192C16.6878 6.53513 16.6313 6.51416 16.5739 6.51416Z" fill="#838383"/>
<path d="M8.15854 11.4699C8.2177 11.3746 8.18013 11.2541 8.07464 11.2006C7.96924 11.1471 7.83573 11.1811 7.77658 11.2764C7.37854 11.9177 7.3785 12.7144 7.77653 13.3557C8.10039 13.8776 8.10039 14.526 7.77653 15.048C7.71737 15.1433 7.75499 15.2638 7.86043 15.3173C7.89428 15.3344 7.93102 15.3426 7.96727 15.3426C8.0439 15.3426 8.1183 15.3062 8.15845 15.2415C8.5564 14.6002 8.5564 13.8035 8.15845 13.1623C7.83455 12.6403 7.8346 11.9918 8.15854 11.4699Z" fill="#838383"/>
<path d="M10.1527 11.4699C10.2118 11.3746 10.1743 11.2541 10.0688 11.2006C9.96338 11.1471 9.82987 11.1811 9.77072 11.2764C9.37268 11.9177 9.37264 12.7144 9.77067 13.3557C10.0945 13.8776 10.0945 14.526 9.77067 15.048C9.71151 15.1433 9.74913 15.2638 9.85457 15.3173C9.88842 15.3344 9.92516 15.3426 9.96141 15.3426C10.038 15.3426 10.1124 15.3062 10.1526 15.2415C10.5505 14.6002 10.5505 13.8035 10.1526 13.1623C9.82869 12.6403 9.82874 11.9918 10.1527 11.4699Z" fill="#838383"/>
<path d="M12.1473 11.4699C12.2065 11.3746 12.1689 11.2541 12.0634 11.2006C11.958 11.1471 11.8245 11.1811 11.7654 11.2764C11.3673 11.9177 11.3673 12.7144 11.7653 13.3557C12.0892 13.8776 12.0892 14.526 11.7653 15.048C11.7061 15.1432 11.7437 15.2638 11.8492 15.3173C11.883 15.3344 11.9198 15.3426 11.956 15.3426C12.0326 15.3426 12.107 15.3062 12.1472 15.2415C12.5452 14.6002 12.5452 13.8035 12.1472 13.1623C11.8233 12.6403 11.8233 11.9918 12.1473 11.4699Z" fill="#838383"/>
</g>
<defs>
<clipPath id="clip0">
<rect width="19.9237" height="18" fill="white"/>
</clipPath>
</defs>
</svg>
