<svg width="44" height="44" viewBox="0 0 44 44" fill="none" xmlns="http://www.w3.org/2000/svg">
<path d="M37.5564 6.44359C33.4012 2.28843 27.8765 0 22 0C16.1236 0 10.5989 2.28834 6.44368 6.44359L6.44351 6.44368L6.44342 6.44377C2.28834 10.5991 0 16.1237 0 22C0 22.0001 0 22.0002 0 22.0002V22.0003C8.59375e-05 26.8044 1.52144 31.369 4.39974 35.2007C4.6432 35.5248 5.02502 35.7155 5.43039 35.7155H38.5698C38.9752 35.7155 39.357 35.5248 39.6004 35.2006C42.4786 31.3688 43.9998 26.8042 43.9999 22.0003V22.0002H44C44 22.0002 44 22.0001 44 22C44 16.1236 41.7116 10.5988 37.5564 6.44359ZM37.9131 33.1375H6.08704C4.0358 30.2161 2.85132 26.8446 2.62066 23.2891L4.05058 23.2891C4.76248 23.2891 5.33964 22.7118 5.33955 21.9999C5.33955 21.288 4.76231 20.7109 4.05041 20.7109L2.62195 20.711C2.91088 16.3243 4.66194 12.3311 7.39226 9.21534L8.39635 10.2193C8.64806 10.4711 8.97789 10.5969 9.3078 10.5969C9.63772 10.5969 9.96763 10.471 10.2193 10.2193C10.7228 9.71584 10.7227 8.89969 10.2193 8.39627L9.21525 7.39234C12.331 4.66202 16.3243 2.91088 20.7109 2.62195V4.05058C20.7109 4.76248 21.2881 5.33964 22 5.33964C22.7119 5.33964 23.2891 4.76248 23.2891 4.05058V2.62195C27.6757 2.91088 31.669 4.66202 34.7848 7.39243L33.7807 8.39627C33.2773 8.8996 33.2772 9.71584 33.7806 10.2193C34.0323 10.471 34.3623 10.5969 34.6921 10.5969C35.0219 10.5969 35.3519 10.4711 35.6035 10.2193L36.6077 9.21534C39.3381 12.3311 41.0891 16.3243 41.378 20.711L39.9495 20.7109C39.9494 20.7109 39.9494 20.7109 39.9494 20.7109C39.2376 20.7109 38.6604 21.288 38.6604 21.9999C38.6603 22.7118 39.2374 23.2891 39.9493 23.2891L41.3793 23.2891C41.1486 26.8446 39.9643 30.216 37.9131 33.1375Z" fill="black"/>
<path d="M30.2845 41.4219H13.7158C13.0039 41.4219 12.4268 41.999 12.4268 42.7109C12.4268 43.4228 13.0039 44 13.7158 44H30.2846C30.9965 44 31.5736 43.4228 31.5736 42.7109C31.5736 41.999 30.9965 41.4219 30.2845 41.4219Z" fill="black"/>
<path d="M30.0803 13.9191C29.5771 13.4156 28.7608 13.4156 28.2574 13.9191L24.8178 17.3586C23.9958 16.8576 23.0308 16.5686 21.9996 16.5686C19.0048 16.5686 16.5684 19.005 16.5684 21.9998C16.5684 24.9947 19.0049 27.4311 21.9996 27.4311C24.9944 27.4311 27.4308 24.9946 27.4308 21.9998C27.4308 20.9687 27.1419 20.0038 26.6408 19.1816L30.0803 15.7421C30.5837 15.2387 30.5837 14.4226 30.0803 13.9191ZM21.9997 24.853C20.4264 24.853 19.1466 23.573 19.1466 21.9998C19.1466 20.4267 20.4265 19.1467 21.9997 19.1467C23.5729 19.1467 24.8527 20.4266 24.8527 21.9998C24.8527 23.5731 23.5729 24.853 21.9997 24.853Z" fill="black"/>
</svg>
