<svg width="20" height="25" viewBox="0 0 20 25" fill="none" xmlns="http://www.w3.org/2000/svg">
<path d="M0.0620518 5.4734L0.602722 3.8527C0.808603 3.23543 1.38421 2.82068 2.03473 2.82068H6.57887V1.34121C6.57887 0.601762 7.18007 0 7.91933 0H12.0807C12.8197 0 13.4211 0.601762 13.4211 1.34121V2.82068H17.9651C18.6158 2.82068 19.1914 3.23543 19.3973 3.8527L19.9379 5.4734C20.0611 5.84238 19.9987 6.25096 19.7713 6.56651C19.5439 6.88206 19.1761 7.07056 18.7871 7.07056H18.222L16.9781 22.452C16.8856 23.5933 15.9171 24.4875 14.7728 24.4875H4.97479C3.83068 24.4875 2.86199 23.5933 2.7697 22.4518L1.52582 7.07056H1.21289C0.823923 7.07056 0.456064 6.88206 0.228699 6.5667C0.00133324 6.25115 -0.0610657 5.84238 0.0620518 5.4734ZM11.9863 1.43481H8.01368V2.82068H11.9863V1.43481ZM4.19984 22.3362C4.23235 22.738 4.57275 23.0527 4.97479 23.0527H14.7728C15.1749 23.0527 15.5152 22.738 15.5478 22.3362L16.7825 7.07056H2.96531L4.19984 22.3362ZM18.4794 5.63575L18.0361 4.30668C18.026 4.27604 17.9974 4.25549 17.9651 4.25549H2.03473C2.00241 4.25549 1.97401 4.27604 1.96374 4.30668L1.5204 5.63575H18.4794Z" fill="#E80D25"/>
<path d="M6.48788 22.2855C6.47517 22.2863 6.46266 22.2865 6.44995 22.2865C6.07089 22.2865 5.75403 21.9894 5.73423 21.6064L5.06054 8.67406C5.03999 8.27837 5.34414 7.94077 5.73965 7.92022C6.13627 7.89911 6.47274 8.20364 6.49348 8.59933L7.16699 21.5317C7.18754 21.9274 6.88357 22.265 6.48788 22.2855Z" fill="#E80D25"/>
<path d="M14.2339 21.608C14.213 21.9904 13.8965 22.2863 13.5182 22.2863C13.5051 22.2863 13.4917 22.286 13.4784 22.2852C13.0829 22.2637 12.7797 21.9256 12.8011 21.5299L13.5068 8.59752C13.5283 8.20183 13.8664 7.89861 14.2621 7.92028C14.6576 7.94177 14.9608 8.27992 14.9394 8.67561L14.2339 21.608Z" fill="#E80D25"/>
<path d="M9.99207 22.2864C9.59581 22.2864 9.27466 21.9652 9.27466 21.569V8.6366C9.27466 8.24034 9.59581 7.91919 9.99207 7.91919C10.3883 7.91919 10.7095 8.24034 10.7095 8.6366V21.569C10.7095 21.9652 10.3883 22.2864 9.99207 22.2864Z" fill="#E80D25"/>
</svg>
