<svg width="15" height="16" viewBox="0 0 15 16" fill="none" xmlns="http://www.w3.org/2000/svg">
<path d="M0.266938 15.4667H1.86694V0.266656C1.86694 0.106656 1.97359 0 2.13359 0H12.8003C12.9603 0 13.0669 0.106656 13.0669 0.266656V15.4667H14.6669C14.8269 15.4667 14.9336 15.5733 14.9336 15.7333C14.9336 15.8933 14.8269 16 14.6669 16H12.8003H11.7336H3.20028H2.13363H0.266938C0.106938 16 0.000281334 15.8933 0.000281334 15.7333C0.000281334 15.5733 0.106938 15.4667 0.266938 15.4667ZM11.4669 15.4667V1.6H3.46694V15.4667H11.4669ZM2.93359 15.4667V1.33334C2.93359 1.17334 3.04025 1.06669 3.20025 1.06669H11.7336C11.8936 1.06669 12.0003 1.17334 12.0003 1.33334V15.4667H12.5336V0.533344H2.40025V15.4667H2.93359V15.4667Z" fill="#838383"/>
<path d="M4.26708 7.7334H5.33373C5.49373 7.7334 5.60039 7.84006 5.60039 8.00006V8.26671H6.13373C6.29373 8.26671 6.40039 8.37337 6.40039 8.53337C6.40039 8.69337 6.29373 8.80003 6.13373 8.80003H5.60039V9.06668C5.60039 9.22668 5.49373 9.33334 5.33373 9.33334H4.26708C4.10708 9.33334 4.00042 9.22668 4.00042 9.06668V8.00006C4.00042 7.84006 4.10708 7.7334 4.26708 7.7334ZM4.53373 8.80006H5.06708V8.26671H4.53373V8.80006Z" fill="#838383"/>
</svg>
