<svg width="59" height="59" viewBox="0 0 59 59" fill="none" xmlns="http://www.w3.org/2000/svg">
<g clip-path="url(#clip0)">
<path d="M36.4352 9.90967L3.97256 42.3746C3.80925 42.5384 3.69132 42.7453 3.63516 42.9676L0.0369904 57.4098C-0.0706413 57.8446 0.0571129 58.3069 0.374392 58.6242C0.614458 58.8643 0.941564 58.9972 1.27616 58.9972C1.37864 58.9972 1.48347 58.9845 1.58548 58.9588L16.0278 55.3602C16.2529 55.304 16.4574 55.1866 16.6207 55.0232L49.0861 22.5606L36.4352 9.90967Z" fill="black"/>
<path d="M57.1292 5.48295L53.5156 1.86933C51.1004 -0.54583 46.8911 -0.54349 44.4787 1.86933L40.0522 6.2958L52.7027 18.9463L57.1292 14.5198C58.3356 13.3139 59.0001 11.7087 59.0001 10.0016C59.0001 8.29447 58.3356 6.68936 57.1292 5.48295Z" fill="black"/>
</g>
<defs>
<clipPath id="clip0">
<rect width="59" height="59" fill="white"/>
</clipPath>
</defs>
</svg>
