<svg width="16" height="16" viewBox="0 0 16 16" fill="none" xmlns="http://www.w3.org/2000/svg">
<path d="M0.46875 0H4.23438C4.49325 0 4.70312 0.209875 4.70312 0.46875V3.76562H8C8.25887 3.76562 8.46875 3.9755 8.46875 4.23438V7.53125H11.7656C12.0245 7.53125 12.2344 7.74113 12.2344 8V11.2969H15.5312C15.7901 11.2969 16 11.5068 16 11.7656V15.5312C16 15.7901 15.7901 16 15.5312 16H0.46875C0.209875 16 0 15.7901 0 15.5312V0.46875C0 0.209875 0.209875 0 0.46875 0ZM0.9375 15.0625H15.0625V12.2344H11.7656C11.5068 12.2344 11.2969 12.0245 11.2969 11.7656V8.46875H8C7.74113 8.46875 7.53125 8.25887 7.53125 8V4.70312H4.23438C3.9755 4.70312 3.76562 4.49325 3.76562 4.23438V0.9375H0.9375V15.0625Z" fill="#838383"/>
</svg>
