<svg width="20" height="18" viewBox="0 0 20 18" fill="none" xmlns="http://www.w3.org/2000/svg">
<g clip-path="url(#clip0)">
<path d="M5.81715 7.07482C6.0023 7.17336 6.2408 7.11764 6.34987 6.95037C6.45895 6.78309 6.39727 6.56762 6.21212 6.46911C6.02697 6.37057 5.78847 6.42629 5.6794 6.59357C5.57032 6.76081 5.632 6.97628 5.81715 7.07482Z" fill="#838383"/>
<path d="M15.3022 4.88734C15.238 4.73712 15.0694 4.64519 14.8925 4.66343C14.7154 4.68179 14.5744 4.80592 14.5495 4.96536C14.3858 6.01389 13.7341 8.6536 12.5363 9.81182C12.4907 9.11073 12.3751 7.95219 12.0823 6.62269C11.8056 5.36638 11.4269 4.22018 10.9567 3.21605C10.3624 1.9468 9.61833 0.899887 8.74519 0.104371C8.64067 0.0090979 8.48552 -0.024406 8.34458 0.0175706C8.20363 0.0596174 8.10118 0.170078 8.07997 0.302828C8.04292 0.534613 7.98097 0.919399 7.97229 0.965418C7.67328 2.55255 7.17928 3.99476 6.50409 5.25198C6.40973 5.42766 6.4909 5.63919 6.68535 5.72445C6.87972 5.80967 7.11394 5.73637 7.20831 5.56069C7.90606 4.26135 8.41824 2.77839 8.73095 1.15213C10.1939 2.8004 10.9385 5.05922 11.3116 6.7476C11.7686 8.81535 11.7832 10.5049 11.7832 10.5216C11.7845 10.7843 12.1068 10.9566 12.3624 10.8303C13.3106 10.3618 14.0982 9.23818 14.7035 7.49049C14.8447 7.08296 14.9587 6.69037 15.0486 6.34415C15.8123 8.43876 16.1264 10.2988 15.9829 11.8864C15.8411 13.4563 15.2587 14.731 14.2518 15.6752C13.9538 15.9546 13.6279 16.1937 13.2844 16.3968C13.6465 15.6424 13.7351 14.494 12.9694 12.7754C12.9034 12.6272 12.73 12.5361 12.5549 12.557C12.3853 12.5773 12.2469 12.6991 12.2199 12.8518C12.1684 13.1441 12.0266 13.6507 11.8159 14.0571C11.6884 13.1578 11.3332 11.792 10.346 10.9474C10.1279 10.7608 9.75624 10.8659 9.69402 11.1308C9.69118 11.143 9.40232 12.3592 8.90738 13.1647C8.80839 13.3258 8.67316 13.5083 8.53 13.7015C8.3022 14.009 8.06666 14.3269 7.92311 14.6307C7.64671 15.2155 7.62713 15.7959 7.86489 16.356C7.9814 16.6305 8.16702 16.8888 8.40268 17.1137C8.33368 17.0956 8.26551 17.0768 8.1992 17.0562C7.73516 16.912 7.28971 16.7274 6.87525 16.5074C5.37089 15.7088 4.35891 14.4588 4.02558 12.9877C3.78529 11.9272 3.91129 10.8034 4.38039 9.82307C4.66107 9.23659 5.03367 8.7057 5.36113 8.26375C5.48137 8.1015 5.43323 7.88188 5.25361 7.77325C5.0741 7.66458 4.83093 7.70811 4.71069 7.87039C4.36358 8.33881 3.96756 8.9038 3.66193 9.54242C3.12975 10.6545 2.98655 11.9284 3.25871 13.1295C3.63707 14.7995 4.78062 16.2156 6.47864 17.1171C6.93809 17.361 7.43132 17.5655 7.9447 17.7249C8.53179 17.9073 9.20414 17.9998 9.89711 17.9998C10.3885 17.9997 10.8814 17.9538 11.3624 17.8625C12.7107 17.6064 13.9047 17.0197 14.8154 16.1658C15.9509 15.101 16.6061 13.6806 16.763 11.9439C16.9431 9.95167 16.4516 7.5775 15.3022 4.88734ZM8.64301 14.9083C8.75788 14.6653 8.97276 14.3753 9.18056 14.0948C9.33302 13.889 9.477 13.6947 9.59179 13.5079C9.89069 13.0214 10.1169 12.4227 10.2634 11.9678C11.1003 13.1605 11.1046 14.9316 11.1045 14.9518C11.103 15.2129 11.4196 15.3881 11.6765 15.2673C12.121 15.0584 12.4283 14.5925 12.6338 14.1325C12.9139 15.2192 12.769 16.0702 12.1996 16.6263C11.8597 16.9582 11.3989 17.1453 10.9489 17.2147C10.697 17.2531 10.437 17.2587 10.1848 17.2191C9.94264 17.1811 9.70713 17.0959 9.49202 16.9898C9.0744 16.784 8.74768 16.4606 8.59577 16.1027C8.43112 15.7148 8.44653 15.3241 8.64301 14.9083Z" fill="#838383"/>
</g>
<defs>
<clipPath id="clip0">
<rect width="19.9237" height="18" fill="white"/>
</clipPath>
</defs>
</svg>
