<svg width="20" height="18" viewBox="0 0 20 18" fill="none" xmlns="http://www.w3.org/2000/svg">
<g clip-path="url(#clip0)">
<path d="M19.5089 4.12524C19.2791 4.12524 19.093 4.29305 19.093 4.50015V7.50022H18.2637V6.75013C18.2637 5.92314 17.5183 5.25025 16.6025 5.25025C16.1076 5.25025 15.6626 5.44744 15.3574 5.7597C15.0534 5.44744 14.6083 5.25025 14.1121 5.25025C13.6172 5.25025 13.1722 5.44744 12.8669 5.7597C12.5629 5.44744 12.1178 5.25025 11.6217 5.25025C11.1267 5.25025 10.6817 5.44744 10.3768 5.7597C10.0725 5.44744 9.62737 5.25025 9.13153 5.25025C8.63632 5.25025 8.19095 5.44744 7.8863 5.7597C7.582 5.44744 7.1369 5.25025 6.64107 5.25025C6.14585 5.25025 5.70049 5.44744 5.39583 5.7597C5.09153 5.44744 4.64643 5.25025 4.1506 5.25025C3.37875 5.25025 2.72753 5.72894 2.54269 6.37522H1.24523C1.01599 6.37522 0.83026 6.54302 0.83026 6.75013V7.50022H0.414974C0.185734 7.50022 0 7.66802 0 7.87513C0 8.08224 0.185734 8.25004 0.414974 8.25004H0.83026V9.00013C0.83026 9.20724 1.01599 9.37504 1.24523 9.37504H2.49047V16.5005C2.49047 17.3272 3.23531 18.0001 4.15068 18.0001C4.64651 18.0001 5.09161 17.8023 5.39591 17.4903C5.70053 17.8023 6.14589 18.0001 6.64114 18.0001C7.13698 18.0001 7.58207 17.8023 7.88638 17.4903C8.19099 17.8023 8.63636 18.0001 9.13161 18.0001C9.62745 18.0001 10.0725 17.8023 10.3768 17.4903C10.6818 17.8023 11.1268 18.0001 11.6218 18.0001C12.1179 18.0001 12.563 17.8023 12.867 17.4903C13.1722 17.8023 13.6173 18.0001 14.1122 18.0001C14.6083 18.0001 15.0534 17.8023 15.3574 17.4903C15.6627 17.8023 16.1077 18.0001 16.6026 18.0001C17.5183 18.0001 18.2638 17.3272 18.2638 16.5005V8.25004H19.509C19.7376 8.25004 19.9237 8.08224 19.9237 7.87513V4.50015C19.9236 4.29305 19.7375 4.12524 19.5089 4.12524ZM2.49047 8.62523H1.66021V7.12503H2.49047V8.62523ZM4.9809 16.5005C4.9809 16.9136 4.60877 17.2497 4.15064 17.2497C3.69313 17.2497 3.32069 16.9136 3.32069 16.5005V9.00013V6.75013C3.32069 6.33676 3.69309 6.00003 4.15064 6.00003C4.60877 6.00003 4.9809 6.33676 4.9809 6.75013V16.5005ZM7.47136 16.5005C7.47133 16.9136 7.09923 17.2497 6.6411 17.2497C6.1836 17.2497 5.81116 16.9136 5.81116 16.5005V6.75013C5.81116 6.33676 6.18356 6.00003 6.6411 6.00003C7.09923 6.00003 7.47136 6.33676 7.47136 6.75013V16.5005ZM9.96179 16.5005C9.96179 16.9136 9.5897 17.2497 9.13153 17.2497C8.67403 17.2497 8.30159 16.9136 8.30159 16.5005V6.75013C8.30159 6.33676 8.67399 6.00003 9.13153 6.00003C9.58966 6.00003 9.96179 6.33676 9.96179 6.75013V16.5005ZM12.4523 16.5005C12.4523 16.9136 12.0802 17.2497 11.6217 17.2497C11.1645 17.2497 10.7924 16.9136 10.7924 16.5005V6.75013C10.7924 6.33676 11.1645 6.00003 11.6217 6.00003C12.0801 6.00003 12.4523 6.33676 12.4523 6.75013V16.5005ZM14.9427 16.5005C14.9427 16.9136 14.5706 17.2497 14.1121 17.2497C13.6549 17.2497 13.2828 16.9136 13.2828 16.5005V6.75013C13.2828 6.33676 13.6549 6.00003 14.1121 6.00003C14.5706 6.00003 14.9427 6.33676 14.9427 6.75013V16.5005ZM17.4331 16.5005C17.4331 16.9136 17.061 17.2497 16.6025 17.2497C16.1454 17.2497 15.7732 16.9136 15.7732 16.5005V6.75013C15.7732 6.33676 16.1453 6.00003 16.6025 6.00003C17.061 6.00003 17.4331 6.33676 17.4331 6.75013V16.5005Z" fill="#838383"/>
<path d="M13.8869 3.64478C13.8359 3.48521 13.8675 3.36902 13.9915 3.25613C14.3284 2.95045 14.4402 2.55357 14.3052 2.13774C14.2153 1.85867 14.0402 1.66147 14.0183 1.63676C14.0171 1.63676 14.0171 1.63648 14.0171 1.63648V1.63595C13.9404 1.55302 13.8261 1.5 13.6972 1.5C13.468 1.5 13.2826 1.66808 13.2826 1.87519C13.2826 1.9661 13.3179 2.0496 13.3775 2.11443C13.3787 2.11524 13.4662 2.21772 13.5088 2.34843C13.5581 2.50196 13.5271 2.61512 13.403 2.72692C13.0674 3.03201 12.9549 3.43163 13.0887 3.85186C13.1792 4.13669 13.3544 4.33828 13.3738 4.36053V4.36025C13.4504 4.4454 13.5666 4.50007 13.6973 4.50007C13.9265 4.50007 14.1119 4.33227 14.1119 4.12516C14.1119 4.0359 14.0779 3.95406 14.0207 3.88979C14.0195 3.8887 13.9295 3.7813 13.8869 3.64478Z" fill="#838383"/>
<path d="M10.4544 3.39642C10.3586 3.05062 10.4352 2.75675 10.6878 2.49828C11.1317 2.04508 11.2728 1.48947 11.0964 0.890721C10.9724 0.471025 10.7341 0.179614 10.7073 0.147762V0.148325C10.6307 0.0585002 10.5118 0 10.3768 0C10.1475 0 9.96179 0.167801 9.96179 0.374907C9.96179 0.459775 9.99312 0.537787 10.0457 0.6004H10.0451C10.0469 0.60258 10.2199 0.81517 10.2998 1.10384C10.3953 1.44932 10.3187 1.74323 10.0657 2.00166C9.62251 2.45486 9.48145 3.01051 9.6578 3.60926C9.78124 4.02895 10.0199 4.32036 10.0463 4.35222L10.0469 4.35165C10.1226 4.44201 10.2421 4.49998 10.3768 4.49998C10.6063 4.49998 10.7924 4.33218 10.7924 4.12507C10.7924 4.0402 10.7608 3.96219 10.7085 3.89958C10.7067 3.8974 10.5337 3.68481 10.4544 3.39642Z" fill="#838383"/>
<path d="M7.37948 3.88979C7.37859 3.8887 7.28889 3.7813 7.24543 3.64478C7.19464 3.48521 7.22597 3.36902 7.3503 3.25613C7.68744 2.95045 7.7987 2.55357 7.66402 2.13774C7.57374 1.85867 7.39983 1.66204 7.37641 1.63676C7.37641 1.63676 7.37641 1.63648 7.3761 1.63648L7.37579 1.63567V1.63595C7.29948 1.55302 7.18488 1.5 7.05627 1.5C6.82703 1.5 6.64098 1.66808 6.64098 1.87519C6.64098 1.9661 6.67686 2.0496 6.73644 2.11443C6.73733 2.11524 6.82489 2.21772 6.86715 2.34843C6.917 2.50196 6.8854 2.61512 6.76196 2.72692C6.42575 3.03201 6.31388 3.43163 6.44766 3.85186C6.53825 4.13669 6.71336 4.33828 6.73313 4.36053V4.36025C6.80944 4.4454 6.92556 4.50007 7.05631 4.50007C7.28555 4.50007 7.47128 4.33227 7.47128 4.12516C7.47128 4.0359 7.43661 3.95406 7.37917 3.88979H7.37948Z" fill="#838383"/>
</g>
<defs>
<clipPath id="clip0">
<rect width="19.9237" height="18" fill="white"/>
</clipPath>
</defs>
</svg>
