<svg width="18" height="25" viewBox="0 0 18 25" fill="none" xmlns="http://www.w3.org/2000/svg">
<path d="M9 0C4.03729 0 0 4.03729 0 9C0 10.6338 0.732706 12.3909 0.763412 12.465C1.00006 13.0267 1.467 13.8992 1.80371 14.4106L7.97453 23.7605C8.22706 24.1438 8.60082 24.3635 9 24.3635C9.39918 24.3635 9.77294 24.1438 10.0255 23.7611L16.1968 14.4106C16.5341 13.8992 17.0005 13.0267 17.2371 12.465C17.2678 12.3914 18 10.6343 18 9C18 4.03729 13.9627 0 9 0ZM16.2609 12.0542C16.0496 12.5576 15.615 13.3692 15.3127 13.8277L9.14135 23.1782C9.01959 23.3629 8.98094 23.3629 8.85918 23.1782L2.68782 13.8277C2.38553 13.3692 1.95088 12.5571 1.73965 12.0536C1.73065 12.0319 1.05882 10.4146 1.05882 9C1.05882 4.62123 4.62124 1.05882 9 1.05882C13.3788 1.05882 16.9412 4.62123 16.9412 9C16.9412 10.4167 16.2678 12.0383 16.2609 12.0542Z" fill="black"/>
<path d="M9.00006 4.23584C6.37259 4.23584 4.23535 6.3736 4.23535 9.00055C4.23535 11.6275 6.37259 13.7653 9.00006 13.7653C11.6275 13.7653 13.7648 11.6275 13.7648 9.00055C13.7648 6.3736 11.6275 4.23584 9.00006 4.23584ZM9.00006 12.7064C6.95706 12.7064 5.29418 11.0441 5.29418 9.00055C5.29418 6.95702 6.95706 5.29466 9.00006 5.29466C11.0431 5.29466 12.7059 6.95702 12.7059 9.00055C12.7059 11.0441 11.0431 12.7064 9.00006 12.7064Z" fill="black"/>
</svg>
