<svg width="44" height="44" viewBox="0 0 44 44" fill="none" xmlns="http://www.w3.org/2000/svg">
<path d="M21.927 40.2724H5.4817C4.47305 40.2724 3.65449 39.4538 3.65449 38.4452V5.55478C3.65449 4.54613 4.47313 3.72758 5.4817 3.72758H21.927C22.9374 3.72758 23.7542 2.91083 23.7542 1.90037C23.7542 0.88992 22.9374 0.072998 21.927 0.072998H5.4817C2.45945 0.072998 0 2.53253 0 5.55478V38.4451C0 41.4674 2.45945 43.9268 5.4817 43.9268H21.927C22.9374 43.9268 23.7542 43.1101 23.7542 42.0996C23.7542 41.0892 22.9374 40.2724 21.927 40.2724Z" fill="black"/>
<path d="M43.4552 20.699L32.3455 9.73552C31.6292 9.02654 30.4708 9.03574 29.7618 9.75383C29.0528 10.4719 29.0601 11.6286 29.7801 12.3375L37.7195 20.1727H16.4449C15.4344 20.1727 14.6177 20.9895 14.6177 21.9999C14.6177 23.0104 15.4344 23.8272 16.4449 23.8272H37.7195L29.7801 31.6624C29.0602 32.3714 29.0547 33.528 29.7618 34.2461C30.1199 34.6079 30.5914 34.7906 31.0628 34.7906C31.527 34.7906 31.991 34.6152 32.3455 34.2643L43.4552 23.3008C43.8024 22.9574 43.9997 22.4895 43.9997 21.9998C43.9997 21.5103 43.8042 21.0444 43.4552 20.699Z" fill="black"/>
</svg>
