<svg width="20" height="20" viewBox="0 0 20 20" fill="none" xmlns="http://www.w3.org/2000/svg">
<path d="M10 0C4.47297 0 0 4.47254 0 10C0 15.5271 4.47254 20 10 20C15.527 20 20 15.5275 20 10C20 4.47293 15.5275 0 10 0ZM10 18.4375C5.33656 18.4375 1.5625 14.6638 1.5625 10C1.5625 5.33652 5.33621 1.5625 10 1.5625C14.6634 1.5625 18.4375 5.33621 18.4375 10C18.4375 14.6635 14.6638 18.4375 10 18.4375Z" fill="#E80D25"/>
<path d="M13.4211 12.3165L11.1046 10L13.4211 7.68353C13.7262 7.37846 13.7262 6.88381 13.4212 6.57869C13.116 6.27357 12.6214 6.27361 12.3163 6.57869L9.9998 8.89518L7.68327 6.57869C7.37823 6.27357 6.88351 6.27357 6.57843 6.57869C6.27335 6.88381 6.27335 7.37846 6.57847 7.68353L8.89495 10L6.57847 12.3165C6.27335 12.6216 6.27331 13.1163 6.57843 13.4213C6.88362 13.7265 7.37827 13.7264 7.68327 13.4213L9.9998 11.1049L12.3163 13.4213C12.6213 13.7264 13.116 13.7265 13.4212 13.4213C13.7263 13.1162 13.7262 12.6216 13.4211 12.3165Z" fill="#E80D25"/>
</svg>
