<svg width="20" height="18" viewBox="0 0 20 18" fill="none" xmlns="http://www.w3.org/2000/svg">
<g clip-path="url(#clip0)">
<path d="M14.1289 7.79773C14.0648 7.79773 13.999 7.80606 13.9332 7.82237L13.1895 8.00744L12.4174 6.30799C12.1986 5.82655 11.552 5.43481 10.976 5.43481H3.74921C3.17311 5.43481 2.52655 5.82655 2.30781 6.30799L1.53666 8.00506L0.802216 7.82231C0.736492 7.80599 0.670695 7.79767 0.606579 7.79767C0.255074 7.79767 0 8.04027 0 8.37441V8.77045C0 9.16053 0.351358 9.47797 0.783135 9.47797H0.867282L0.742633 9.75227C0.539392 10.1994 0.373948 10.9567 0.373948 11.4404V14.8165C0.373948 15.2066 0.725306 15.524 1.15708 15.524H2.17987C2.61164 15.524 2.963 15.2066 2.963 14.8165V13.9734H11.7621V14.8165C11.7621 15.2066 12.1134 15.524 12.5452 15.524H13.5679C13.9996 15.524 14.351 15.2066 14.351 14.8165V11.4404C14.351 10.9569 14.1855 10.1996 13.9823 9.75234L13.8577 9.47803H13.9523C14.384 9.47803 14.7354 9.1606 14.7354 8.77051V8.37448C14.7355 8.04033 14.4803 7.79773 14.1289 7.79773ZM2.09806 9.09376L3.26618 6.52324C3.39704 6.23527 3.78598 5.9996 4.13054 5.9996H10.5946C10.9392 5.9996 11.3281 6.2352 11.459 6.52324L12.6271 9.09376C12.7579 9.38173 12.5831 9.6174 12.2385 9.6174H2.4867C2.14207 9.61733 1.96727 9.38173 2.09806 9.09376ZM4.70561 12.3452C4.70561 12.5009 4.56458 12.6281 4.39241 12.6281H2.17343C2.00112 12.6281 1.86016 12.5008 1.86016 12.3452V11.3831C1.86016 11.2275 2.00112 11.1001 2.17343 11.1001H4.39241C4.56458 11.1001 4.70561 11.2275 4.70561 11.3831V12.3452ZM12.8439 12.3452C12.8439 12.5009 12.7029 12.6281 12.5307 12.6281H10.3118C10.1396 12.6281 9.99857 12.5008 9.99857 12.3452V11.3831C9.99857 11.2275 10.1396 11.1001 10.3118 11.1001H12.5307C12.7029 11.1001 12.8439 11.2275 12.8439 11.3831V12.3452Z" fill="#838383"/>
<path d="M18.944 2.47607H15.2349C14.6948 2.47607 14.2554 2.8731 14.2554 3.361V6.71209C14.2554 7.20006 14.6948 7.59709 15.2349 7.59709H16.7239V15.1183C16.7239 15.3007 16.8875 15.4485 17.0894 15.4485C17.2913 15.4485 17.455 15.3007 17.455 15.1183V7.59715H18.944C19.4841 7.59715 19.9235 7.20013 19.9235 6.71216V3.36107C19.9235 2.8731 19.4841 2.47607 18.944 2.47607ZM18.1039 5.25458C17.8906 5.42809 17.5764 5.51607 17.17 5.51607H16.6329C16.5684 5.51607 16.5159 5.56356 16.5159 5.62181V6.4401C16.5159 6.529 16.4359 6.60126 16.3375 6.60126H15.9307C15.8322 6.60126 15.7523 6.52894 15.7523 6.4401V3.63333C15.7523 3.54436 15.8323 3.47203 15.9307 3.47203H16.9554C17.6342 3.47203 17.8876 3.56444 18.0958 3.72408C18.3154 3.89244 18.4267 4.1503 18.4267 4.49065C18.4266 4.82321 18.3181 5.08014 18.1039 5.25458Z" fill="#838383"/>
<path d="M17.5227 4.14983C17.4235 4.0822 17.2481 4.04785 17.0015 4.04785H16.6331C16.5686 4.04785 16.5161 4.09528 16.5161 4.15346V4.82598C16.5161 4.88417 16.5686 4.93159 16.6331 4.93159H16.8538C16.9349 4.93159 17.0659 4.92618 17.1458 4.91951C17.2234 4.9131 17.4423 4.88443 17.5227 4.82961C17.6191 4.7637 17.668 4.64969 17.668 4.49085C17.668 4.33048 17.6191 4.21575 17.5227 4.14983Z" fill="#838383"/>
</g>
<defs>
<clipPath id="clip0">
<rect width="19.9237" height="18" fill="white"/>
</clipPath>
</defs>
</svg>
