<svg width="20" height="18" viewBox="0 0 20 18" fill="none" xmlns="http://www.w3.org/2000/svg">
<g clip-path="url(#clip0)">
<path d="M0.744353 12.8614C8.316 10.9169 11.0835 14.8465 19.4882 12.8644C19.8001 12.7909 19.9869 12.5028 19.9055 12.221C19.8241 11.9392 19.5052 11.7704 19.1933 11.844C17.5433 12.2331 16.113 12.3771 14.8179 12.3787L13.1257 9.91458C14.126 11.0375 15.9851 11.1022 17.0743 10.0558C17.5532 9.59571 17.8052 8.99468 17.7838 8.36341C17.7119 6.24722 14.842 5.29768 13.2615 6.81605C12.5001 7.54751 12.362 8.58753 12.7907 9.42671L10.4752 6.05509L13.9113 5.15927C14.9784 4.88108 15.4827 3.77753 14.9405 2.89978C14.5469 2.26247 13.7298 1.95865 12.9537 2.16101L7.75161 3.51723C6.40283 3.8689 5.79881 5.28541 6.53941 6.36387L8.11175 8.65335C6.97832 9.28897 3.38338 11.303 3.34521 11.3269C2.44285 11.4131 1.47647 11.5769 0.425225 11.8469C0.115163 11.9266 -0.0647728 12.2182 0.023366 12.4984C0.111466 12.7786 0.434408 12.9411 0.744353 12.8614ZM14.1118 7.53865C14.6613 7.01081 15.5785 6.98687 16.1611 7.48184C16.7447 7.97771 16.7729 8.80585 16.2239 9.33323C15.6751 9.86044 14.7584 9.886 14.1747 9.39005C13.5911 8.89413 13.5629 8.06599 14.1118 7.53865ZM9.41138 8.54545L7.53136 5.80787C7.19931 5.32437 7.46964 4.68849 8.07521 4.53061L13.2773 3.17439C13.5289 3.10871 13.7935 3.20726 13.9211 3.41376C14.0972 3.69878 13.9326 4.05596 13.5876 4.14593L9.41099 5.23482C9.03925 5.33175 8.87321 5.72304 9.07684 6.01951L13.4074 12.3252C10.6839 12.1187 8.47104 11.3766 5.66904 11.2639L9.22315 9.27153C9.49707 9.11801 9.58135 8.79292 9.41138 8.54545Z" fill="#838383"/>
<path d="M19.1924 14.3047C11.1512 16.2011 8.32958 12.2774 0.424248 14.3077C0.114186 14.3874 -0.0657494 14.679 0.0223895 14.9592C0.110528 15.2393 0.433471 15.4019 0.743455 15.3222C8.31511 13.3777 11.0826 17.3073 19.4873 15.3252C19.7992 15.2517 19.986 14.9636 19.9046 14.6818C19.8232 14.4 19.5043 14.2312 19.1924 14.3047Z" fill="#838383"/>
</g>
<defs>
<clipPath id="clip0">
<rect width="19.9237" height="18" fill="white"/>
</clipPath>
</defs>
</svg>
