<svg width="18" height="18" viewBox="0 0 18 18" fill="none" xmlns="http://www.w3.org/2000/svg">
<g clip-path="url(#clip0)">
<path d="M16.125 13.5H13.875C13.668 13.5 13.5 13.332 13.5 13.125C13.5 12.918 13.668 12.75 13.875 12.75H16.125C16.7453 12.75 17.25 12.2453 17.25 11.625V6.375C17.25 5.75475 16.7453 5.25 16.125 5.25H1.875C1.25475 5.25 0.75 5.75475 0.75 6.375V11.625C0.75 12.2453 1.25475 12.75 1.875 12.75H4.125C4.332 12.75 4.5 12.918 4.5 13.125C4.5 13.332 4.332 13.5 4.125 13.5H1.875C0.84075 13.5 0 12.6585 0 11.625V6.375C0 5.3415 0.84075 4.5 1.875 4.5H16.125C17.1593 4.5 18 5.3415 18 6.375V11.625C18 12.6585 17.1593 13.5 16.125 13.5Z" fill="white"/>
<path d="M10.875 15.7502H6.375C6.168 15.7502 6 15.5822 6 15.3752C6 15.1682 6.168 15.0002 6.375 15.0002H10.875C11.082 15.0002 11.25 15.1682 11.25 15.3752C11.25 15.5822 11.082 15.7502 10.875 15.7502Z" fill="white"/>
<path d="M10.875 14.25H6.375C6.168 14.25 6 14.082 6 13.875C6 13.668 6.168 13.5 6.375 13.5H10.875C11.082 13.5 11.25 13.668 11.25 13.875C11.25 14.082 11.082 14.25 10.875 14.25Z" fill="white"/>
<path d="M7.875 12.7497H6.375C6.168 12.7497 6 12.5817 6 12.3748C6 12.1678 6.168 11.9998 6.375 11.9998H7.875C8.082 11.9998 8.25 12.1678 8.25 12.3748C8.25 12.5817 8.082 12.7497 7.875 12.7497Z" fill="white"/>
<path d="M13.875 5.25C13.668 5.25 13.5 5.082 13.5 4.875V1.875C13.5 1.25475 12.9953 0.75 12.375 0.75H5.625C5.00475 0.75 4.5 1.25475 4.5 1.875V4.875C4.5 5.082 4.332 5.25 4.125 5.25C3.918 5.25 3.75 5.082 3.75 4.875V1.875C3.75 0.8415 4.59075 0 5.625 0H12.375C13.4093 0 14.25 0.8415 14.25 1.875V4.875C14.25 5.082 14.082 5.25 13.875 5.25Z" fill="white"/>
<path d="M12.375 17.9997H5.625C4.59075 17.9997 3.75 17.1582 3.75 16.1247V10.1248C3.75 9.91776 3.918 9.74976 4.125 9.74976H13.875C14.082 9.74976 14.25 9.91776 14.25 10.1248V16.1247C14.25 17.1582 13.4093 17.9997 12.375 17.9997ZM4.5 10.4998V16.1247C4.5 16.745 5.00475 17.2497 5.625 17.2497H12.375C12.9953 17.2497 13.5 16.745 13.5 16.1247V10.4998H4.5Z" fill="white"/>
</g>
<defs>
<clipPath id="clip0">
<rect width="18" height="18" fill="white"/>
</clipPath>
</defs>
</svg>
