<svg width="56" height="56" viewBox="0 0 56 56" fill="none" xmlns="http://www.w3.org/2000/svg">
<g clip-path="url(#clip0)">
<path d="M27.601 26.9754C31.3069 26.9754 34.5159 25.6462 37.1379 23.0238C39.7599 20.4018 41.0891 17.1936 41.0891 13.4873C41.0891 9.78219 39.7599 6.57358 37.1375 3.95073C34.5151 1.32916 31.3065 0 27.601 0C23.8946 0 20.6864 1.32916 18.0644 3.95116C15.4424 6.57316 14.1128 9.78176 14.1128 13.4873C14.1128 17.1936 15.4424 20.4022 18.0648 23.0242C20.6873 25.6458 23.8959 26.9754 27.601 26.9754Z" fill="#262626"/>
<path d="M51.2016 43.0613C51.126 41.9701 50.973 40.7798 50.7479 39.5228C50.5206 38.2565 50.2279 37.0593 49.8776 35.9652C49.5157 34.8343 49.0235 33.7174 48.4151 32.6472C47.7836 31.5364 47.0419 30.5691 46.2097 29.7731C45.3394 28.9404 44.2738 28.2709 43.0416 27.7826C41.8137 27.2968 40.4529 27.0507 38.9973 27.0507C38.4257 27.0507 37.8728 27.2853 36.8051 27.9804C36.148 28.4089 35.3794 28.9045 34.5215 29.4527C33.7879 29.9201 32.7941 30.358 31.5667 30.7545C30.3691 31.142 29.1531 31.3385 27.953 31.3385C26.7529 31.3385 25.5374 31.142 24.3385 30.7545C23.1123 30.3584 22.1185 29.9205 21.3858 29.4531C20.536 28.9101 19.767 28.4145 19.1 27.98C18.0336 27.2849 17.4803 27.0503 16.9087 27.0503C15.4526 27.0503 14.0923 27.2968 12.8648 27.783C11.6335 28.2705 10.5675 28.94 9.69635 29.7735C8.8645 30.5699 8.12238 31.5368 7.49176 32.6472C6.88379 33.7174 6.3916 34.8338 6.0293 35.9656C5.67938 37.0598 5.38672 38.2565 5.15942 39.5228C4.93427 40.7781 4.78131 41.9688 4.70569 43.0626C4.63135 44.1341 4.59375 45.2462 4.59375 46.3694C4.59375 49.2926 5.52301 51.6591 7.35547 53.4044C9.16528 55.1267 11.56 56.0004 14.4721 56.0004H41.4365C44.3486 56.0004 46.7424 55.1271 48.5527 53.4044C50.3856 51.6604 51.3148 49.2935 51.3148 46.369C51.3144 45.2407 51.2764 44.1277 51.2016 43.0613Z" fill="#262626"/>
</g>
<defs>
<clipPath id="clip0">
<rect width="56" height="56" fill="white"/>
</clipPath>
</defs>
</svg>
