<svg width="37" height="37" viewBox="0 0 37 37" fill="none" xmlns="http://www.w3.org/2000/svg">
<path d="M35.5656 33.4444L25.3266 23.2054C27.31 20.7555 28.5041 17.6426 28.5041 14.2521C28.5041 6.39395 22.1102 0 14.252 0C6.39388 0 0 6.39388 0 14.252C0 22.1102 6.39395 28.5041 14.2521 28.5041C17.6426 28.5041 20.7555 27.31 23.2054 25.3267L33.4443 35.5656C33.7369 35.8582 34.1209 36.0052 34.505 36.0052C34.8891 36.0052 35.2732 35.8582 35.5657 35.5656C36.1523 34.9791 36.1523 34.0309 35.5656 33.4444ZM14.2521 25.5037C8.04717 25.5037 3.00046 20.4569 3.00046 14.252C3.00046 8.0471 8.04717 3.00039 14.2521 3.00039C20.457 3.00039 25.5037 8.0471 25.5037 14.252C25.5037 20.4569 20.4569 25.5037 14.2521 25.5037Z" fill="white"/>
</svg>
