<svg width="38" height="35" viewBox="0 0 38 35" fill="none" xmlns="http://www.w3.org/2000/svg">
<g filter="url(#filter0_d)">
<path d="M30.6201 2.612C29.0671 0.927658 26.9362 0 24.6195 0C22.8878 0 21.3018 0.547485 19.9057 1.62712C19.2012 2.17209 18.5628 2.83882 18 3.61702C17.4374 2.83905 16.7988 2.17209 16.0941 1.62712C14.6982 0.547485 13.1122 0 11.3805 0C9.06377 0 6.93265 0.927658 5.37968 2.612C3.84526 4.27666 3 6.55083 3 9.01588C3 11.553 3.94551 13.8755 5.97546 16.325C7.79141 18.5161 10.4014 20.7404 13.4237 23.316C14.4558 24.1956 15.6256 25.1926 16.8403 26.2546C17.1611 26.5356 17.5729 26.6904 18 26.6904C18.4269 26.6904 18.8389 26.5356 19.1593 26.255C20.374 25.1928 21.5445 24.1953 22.577 23.3153C25.5989 20.7401 28.2088 18.5161 30.0248 16.3248C32.0547 13.8755 33 11.553 33 9.01566C33 6.55083 32.1547 4.27666 30.6201 2.612Z" fill="#F40049"/>
</g>
<defs>
<filter id="filter0_d" x="0" y="0" width="38" height="34.6904" filterUnits="userSpaceOnUse" color-interpolation-filters="sRGB">
<feFlood flood-opacity="0" result="BackgroundImageFix"/>
<feColorMatrix in="SourceAlpha" type="matrix" values="0 0 0 0 0 0 0 0 0 0 0 0 0 0 0 0 0 0 127 0" result="hardAlpha"/>
<feOffset dx="1" dy="4"/>
<feGaussianBlur stdDeviation="2"/>
<feComposite in2="hardAlpha" operator="out"/>
<feColorMatrix type="matrix" values="0 0 0 0 0 0 0 0 0 0 0 0 0 0 0 0 0 0 0.25 0"/>
<feBlend mode="normal" in2="BackgroundImageFix" result="effect1_dropShadow"/>
<feBlend mode="normal" in="SourceGraphic" in2="effect1_dropShadow" result="shape"/>
</filter>
</defs>
</svg>
