<svg width="17" height="18" viewBox="0 0 17 18" fill="none" xmlns="http://www.w3.org/2000/svg">
<path d="M13.7109 11.6719C12.669 11.6719 11.7433 12.1782 11.1664 12.9576L6.19988 10.4195C6.2832 10.1364 6.32812 9.83704 6.32812 9.52734C6.32812 9.10789 6.24589 8.70736 6.09701 8.34071L11.3022 5.21329C11.883 5.89496 12.7473 6.32812 13.7109 6.32812C15.4556 6.32812 16.875 4.90873 16.875 3.16406C16.875 1.4194 15.4556 0 13.7109 0C11.9663 0 10.5469 1.4194 10.5469 3.16406C10.5469 3.5673 10.6228 3.95307 10.761 4.30805L5.54273 7.44328C4.96238 6.78171 4.11121 6.36328 3.16406 6.36328C1.4194 6.36328 0 7.78268 0 9.52734C0 11.272 1.4194 12.6914 3.16406 12.6914C4.22304 12.6914 5.16206 12.1684 5.73669 11.3672L10.6888 13.8979C10.5966 14.1944 10.5469 14.5095 10.5469 14.8359C10.5469 16.5806 11.9663 18 13.7109 18C15.4556 18 16.875 16.5806 16.875 14.8359C16.875 13.0913 15.4556 11.6719 13.7109 11.6719ZM13.7109 1.05469C14.874 1.05469 15.8203 2.00095 15.8203 3.16406C15.8203 4.32717 14.874 5.27344 13.7109 5.27344C12.5478 5.27344 11.6016 4.32717 11.6016 3.16406C11.6016 2.00095 12.5478 1.05469 13.7109 1.05469ZM3.16406 11.6367C2.00095 11.6367 1.05469 10.6905 1.05469 9.52734C1.05469 8.36423 2.00095 7.41797 3.16406 7.41797C4.32717 7.41797 5.27344 8.36423 5.27344 9.52734C5.27344 10.6905 4.32717 11.6367 3.16406 11.6367ZM13.7109 16.9453C12.5478 16.9453 11.6016 15.999 11.6016 14.8359C11.6016 13.6728 12.5478 12.7266 13.7109 12.7266C14.874 12.7266 15.8203 13.6728 15.8203 14.8359C15.8203 15.999 14.874 16.9453 13.7109 16.9453Z" fill="white"/>
</svg>
