<svg width="20" height="18" viewBox="0 0 20 18" fill="none" xmlns="http://www.w3.org/2000/svg">
<g clip-path="url(#clip0)">
<path d="M9.92281 16.4004C10.632 16.4004 11.207 15.881 11.207 15.2402C11.207 14.5995 10.632 14.0801 9.92281 14.0801C9.2136 14.0801 8.63867 14.5995 8.63867 15.2402C8.63867 15.881 9.2136 16.4004 9.92281 16.4004Z" fill="#838383"/>
<path d="M19.7147 5.44443C17.157 2.96511 13.6934 1.59964 9.96168 1.59961C6.23028 1.59964 2.76673 2.96511 0.208914 5.44443C-0.0841034 5.72849 -0.066787 6.17343 0.247633 6.43819C0.562091 6.70292 1.05454 6.68731 1.3476 6.40321C3.60768 4.21242 6.66689 3.00589 9.96196 3.00586C13.2567 3.00589 16.316 4.21242 18.576 6.40321C18.7293 6.55178 18.9372 6.62694 19.1455 6.62694C19.3356 6.62694 19.526 6.56444 19.676 6.43819C19.9904 6.17339 20.0078 5.72849 19.7147 5.44443Z" fill="#838383"/>
<path d="M16.8572 8.34818C14.9666 6.62715 12.5178 5.67937 9.96196 5.67944C7.40555 5.67948 4.95673 6.62729 3.06664 8.34826C2.76389 8.62392 2.7658 9.0691 3.07092 9.34261C3.37604 9.61613 3.86879 9.61441 4.17154 9.33875C5.76718 7.88588 7.8236 7.08573 9.96196 7.08569C12.0998 7.08562 14.1562 7.88581 15.7524 9.33882C15.9046 9.4773 16.1047 9.54662 16.3048 9.54662C16.503 9.54662 16.7013 9.47863 16.8531 9.34254C17.1582 9.06899 17.16 8.62381 16.8572 8.34818Z" fill="#838383"/>
<path d="M13.7423 11.26C12.7298 10.3537 11.2785 9.79077 9.95454 9.79077C9.95439 9.79077 9.95411 9.79077 9.95396 9.79077H9.89789C9.89765 9.79077 9.89754 9.79077 9.8973 9.79077C8.57335 9.79077 7.12188 10.3538 6.1094 11.26C5.80408 11.5333 5.80179 11.9785 6.1043 12.2544C6.25649 12.3931 6.45682 12.4626 6.65718 12.4626C6.85513 12.4626 7.05316 12.3948 7.20489 12.259C7.92568 11.6138 8.98245 11.197 9.89738 11.197C9.8975 11.197 9.89765 11.197 9.89777 11.197H9.95408C9.95423 11.197 9.95427 11.197 9.95443 11.197C10.8692 11.197 11.9261 11.6139 12.6468 12.259C12.9521 12.5323 13.445 12.5303 13.7474 12.2544C14.05 11.9785 14.0477 11.5333 13.7423 11.26Z" fill="#838383"/>
</g>
<defs>
<clipPath id="clip0">
<rect width="19.9237" height="18" fill="white"/>
</clipPath>
</defs>
</svg>
